Hey Fellow Pirates...


I found this little torrent onafter searching high and low for a decent quality encode.
 
http://www.imdb.com/title/tt0091828/


If there are no seeds on TPB download the torrent file from here: 


Last time i looked, it had three (3) seeds. Please help make this torrent come to life again, it's very hard to find!




Video
ID                                       : 1
Format                                   : AVC
Format/Info                              : Advanced Video Codec
Format profile                           : High@L4.1
Format settings, CABAC                   : Yes
Format settings, ReFrames                : 12 frames
Codec ID                                 : V_MPEG4/ISO/AVC
Duration                                 : 1h 45mn
Bit rate                                 : 2 513 Kbps
Width                                    : 1 280 pixels
Height                                   : 540 pixels
Display aspect ratio                     : 2.40:1
Frame rate mode                          : Constant
Frame rate                               : 24.000 fps
Color space                              : YUV
Chroma subsampling                       : 4:2:0
Bit depth                                : 8 bits
Scan type                                : Progressive
Bits/(Pixel*Frame)                       : 0.151
Stream size                              : 1.81 GiB (83%)
Title                                    : Raw.Deal.(1986).BDRip.720p.AC3.x264-ShitBusters
Writing library                          : x264 core 120 r2120 0c7dab9
Encoding settings                        : cabac=1 / ref=12 / deblock=1:-3:-2 / analyse=0x3:0x133 / me=umh / subme=10 / psy=1 / psy_rd=1.00:0.25 / mixed_ref=1 / me_range=24 / chroma_me=1 / trellis=2 / 8x8dct=1 / cqm=0 / deadzone=21,11 / fast_pskip=0 / chroma_qp_offset=-4 / threads=9 / sliced_threads=0 / slices=4 / nr=0 / decimate=0 / interlaced=0 / bluray_compat=0 / constrained_intra=0 / bframes=16 / b_pyramid=2 / b_adapt=2 / b_bias=0 / direct=3 / weightb=1 / open_gop=0 / weightp=2 / keyint=250 / keyint_min=23 / scenecut=40 / intra_refresh=0 / rc_lookahead=60 / rc=2pass / mbtree=1 / bitrate=2513 / ratetol=1.0 / qcomp=0.70 / qpmin=0 / qpmax=69 / qpstep=4 / cplxblur=20.0 / qblur=0.5 / vbv_maxrate=40000 / vbv_bufsize=30000 / nal_hrd=none / ip_ratio=1.40 / aq=1:1.00
Language                                 : English
Default                                  : Yes
Forced                                   : No

Audio
ID                                       : 2
Format                                   : AC-3
Format/Info                              : Audio Coding 3
Mode extension                           : CM (complete main)
Format settings, Endianness              : Big
Codec ID                                 : A_AC3
Duration                                 : 1h 45mn
Bit rate mode                            : Constant
Bit rate                                 : 448 Kbps
Channel(s)                               : 6 channels
Channel positions                        : Front: L C R, Side: L R, LFE
Sampling rate                            : 48.0 KHz
Bit depth                                : 16 bits
Compression mode                         : Lossy
Stream size                              : 338 MiB (15%)
Title                                    : 448 kbps @ 6 chnls
Language                                 : English
Default                                  : Yes
Forced                                   : No

Text #1
ID                                       : 3
Format                                   : UTF-8
Codec ID                                 : S_TEXT/UTF8
Codec ID/Info                            : UTF-8 Plain Text
Language                                 : English
Default                                  : Yes
Forced                                   : No

(plus a shitload more embedded subs in different languages)

Please keep seeding this after you finish downloading to help keep this classic movie torrent alive!